<?xml version="1.0" standalone="no"?><!DOCTYPE svg PUBLIC "-//W3C//DTD SVG 1.1//EN" "http://www.w3.org/Graphics/SVG/1.1/DTD/svg11.dtd"><svg t="1576833078056" class="icon" viewBox="0 0 1024 1024" version="1.1" xmlns="http://www.w3.org/2000/svg" p-id="1088" xmlns:xlink="http://www.w3.org/1999/xlink" width="200" height="200"><defs><style type="text/css"></style></defs><path d="M512 955.3c-59.8 0-117.9-11.7-172.5-34.8-52.8-22.3-100.2-54.3-140.9-95s-72.7-88.1-95-140.9C80.5 629.9 68.7 571.8 68.7 512s11.7-117.9 34.8-172.5c22.3-52.8 54.3-100.2 95-140.9s88.1-72.7 140.9-95C394.1 80.5 452.3 68.7 512 68.7s118 11.7 172.5 34.8c52.8 22.3 100.2 54.3 140.9 95s72.7 88.1 95 140.9c23.1 54.7 34.8 112.7 34.8 172.5s-11.7 117.9-34.8 172.5c-22.3 52.8-54.3 100.2-95 140.9s-88.1 72.7-140.9 95c-54.5 23.2-112.7 35-172.5 35z m0-836.6c-216.8 0-393.3 176.4-393.3 393.3S295.3 905.3 512 905.3 905.3 728.8 905.3 512 728.8 118.7 512 118.7z" fill="#FFFFFF" p-id="1089"></path><path d="M428.6 681.9c-9.5 0-18.1-5.3-22.4-13.8l-130-289.7c-6.2-12.3-1.2-27.4 11.2-33.5 12.3-6.2 27.4-1.2 33.5 11.2l107.6 245.1 107.7-245.3c6.2-12.3 21.2-17.4 33.5-11.2 12.3 6.2 17.4 21.2 11.2 33.5l-130.1 290c-4.1 8.3-12.8 13.7-22.2 13.7z" fill="#FFFFFF" p-id="1090"></path><path d="M595.6 681.9c-9.5 0-18.1-5.3-22.4-13.8l-130-289.7c-6.2-12.3-1.2-27.4 11.2-33.5 12.3-6.2 27.4-1.2 33.5 11.2l107.6 245.1 107.7-245.3c6.2-12.3 21.2-17.4 33.5-11.2 12.3 6.2 17.4 21.2 11.2 33.5l-130.1 290c-4.1 8.3-12.8 13.7-22.2 13.7z" fill="#FFFFFF" p-id="1091"></path></svg>